<?xml version="1.0" encoding="UTF-8" standalone="no"?> <svg id="a92142d8-af57-40e2-828f-a716bbde8186" data-name="Layer 2" xmlns="http://www.w3.org/2000/svg" xmlns:xlink="http://www.w3.org/1999/xlink" viewBox="0 0 64 64"><defs><style>.be128d38-3d42-4e3c-a14c-2fccb708f41e{fill:url(#b5b181ef-91e0-4979-b367-b0ac7958097e);}.b397cb22-7123-4fd3-9190-20498de2060c{fill:url(#ea33dbf4-84e1-4ab3-aa5c-60db398d302a);}.ed050350-c5bc-4d99-a37c-2ca541c66685{fill:url(#bdad687a-fe88-4fed-b77a-aa4fda7bf5f0);}.b1ae9e0a-ab6e-42db-b88e-07476936691d{fill:url(#b9167bfa-d1dc-4f30-b010-e718b00c7ac2);}.a40f7c61-e446-4674-a9d5-4a6cdfd8bfe1{fill:url(#f3aae167-1df9-4e83-8c05-94a07df1f406);}.a018e247-0fd0-4722-80bb-0c981689ef26{fill:url(#eb138b84-1825-4dee-9fe6-74a710bb96f3);}.e81052b9-419f-4506-8c70-e2b514a9f0e0{fill:url(#f9108c50-338f-4e48-a738-43942572e547);}.a059d934-42ab-4413-ab7e-f609166e4659{fill:url(#b74243c1-74c4-4519-9f4a-0d64fa1be022);}.b672de80-37a9-4b41-8ec3-6fcb050bec66{fill:url(#b3b4c440-d22d-410a-87e7-430eaf020431);}</style><linearGradient id="b5b181ef-91e0-4979-b367-b0ac7958097e" x1="4.236" y1="46.132" x2="36.456" y2="7.612" gradientUnits="userSpaceOnUse"><stop offset="0" stop-color="#ff8d55"/><stop offset="1" stop-color="#d40b00"/></linearGradient><linearGradient id="ea33dbf4-84e1-4ab3-aa5c-60db398d302a" x1="3.027" y1="45.12" x2="35.247" y2="6.6" xlink:href="#b5b181ef-91e0-4979-b367-b0ac7958097e"/><linearGradient id="bdad687a-fe88-4fed-b77a-aa4fda7bf5f0" x1="3.702" y1="45.685" x2="35.922" y2="7.165" xlink:href="#b5b181ef-91e0-4979-b367-b0ac7958097e"/><linearGradient id="b9167bfa-d1dc-4f30-b010-e718b00c7ac2" x1="14.934" y1="55.079" x2="47.154" y2="16.559" xlink:href="#b5b181ef-91e0-4979-b367-b0ac7958097e"/><linearGradient id="f3aae167-1df9-4e83-8c05-94a07df1f406" x1="12.822" y1="53.313" x2="45.042" y2="14.793" xlink:href="#b5b181ef-91e0-4979-b367-b0ac7958097e"/><linearGradient id="eb138b84-1825-4dee-9fe6-74a710bb96f3" x1="15.014" y1="55.146" x2="47.234" y2="16.626" xlink:href="#b5b181ef-91e0-4979-b367-b0ac7958097e"/><linearGradient id="f9108c50-338f-4e48-a738-43942572e547" x1="13.428" y1="53.82" x2="45.648" y2="15.3" xlink:href="#b5b181ef-91e0-4979-b367-b0ac7958097e"/><linearGradient id="b74243c1-74c4-4519-9f4a-0d64fa1be022" x1="23.216" y1="62.008" x2="55.436" y2="23.488" xlink:href="#b5b181ef-91e0-4979-b367-b0ac7958097e"/><linearGradient id="b3b4c440-d22d-410a-87e7-430eaf020431" x1="23.564" y1="62.298" x2="55.784" y2="23.778" xlink:href="#b5b181ef-91e0-4979-b367-b0ac7958097e"/></defs><path class="be128d38-3d42-4e3c-a14c-2fccb708f41e" d="M13.694,28.134a1,1,0,0,1-.842-1.537c1.222-1.923,7.367-7.329,19.181-6.937A1,1,0,0,1,33,20.692a.967.967,0,0,1-1.032.966c-11.036-.337-16.562,4.651-17.428,6.013A1,1,0,0,1,13.694,28.134Z"/><path class="b397cb22-7123-4fd3-9190-20498de2060c" d="M26.5,32.341l-.067,0c-6.958-.464-9.99-2.147-12.97-4.133a6.446,6.446,0,0,1-2.91-5.219,2.435,2.435,0,0,1,0-.479c0-.032,0-.07,0-.079a6.669,6.669,0,0,1,3.609-5.658C17.461,15.05,23.228,13,32,13a1,1,0,0,1,0,2c-8.366,0-13.812,1.926-16.906,3.542a4.687,4.687,0,0,0-2.539,3.975c0,.021,0,.127,0,.148a.932.932,0,0,0,0,.183,4.518,4.518,0,0,0,2.024,3.693c2.739,1.826,5.531,3.371,12,3.8a1,1,0,0,1-.065,2Z"/><path class="ed050350-c5bc-4d99-a37c-2ca541c66685" d="M21.885,38.7a.991.991,0,0,1-.288-.043,39.007,39.007,0,0,1-6.721-2.849l-.652-.331a6.631,6.631,0,0,1-3.668-5.952V22.558a1.036,1.036,0,0,1,1-1.042.964.964,0,0,1,1,.957v7.054a4.641,4.641,0,0,0,2.567,4.166l.659.333a37.451,37.451,0,0,0,6.391,2.719,1,1,0,0,1-.288,1.957Z"/><path class="b1ae9e0a-ab6e-42db-b88e-07476936691d" d="M33.793,41.083H30.207a3.853,3.853,0,0,1-3.8-3.292l-.64-4.477a3.637,3.637,0,0,1,3.6-4.149h5.258a3.637,3.637,0,0,1,3.6,4.149l-.64,4.477A3.853,3.853,0,0,1,33.793,41.083Zm-4.422-9.918a1.636,1.636,0,0,0-1.618,1.866l.64,4.477a1.842,1.842,0,0,0,1.814,1.575h3.586a1.842,1.842,0,0,0,1.814-1.575l.64-4.477a1.636,1.636,0,0,0-1.618-1.866Z"/><path class="a40f7c61-e446-4674-a9d5-4a6cdfd8bfe1" d="M20.667,51a.948.948,0,0,1-.2-.02l-7.084-1.417a1,1,0,0,1-.8-.98c0-6.023,12.319-14.552,13.724-15.5a1,1,0,0,1,1.123,1.654c-3.357,2.278-11.741,8.78-12.747,13.05l5.259,1.052c.765-2.657,3.307-10,8.17-10.564a1,1,0,1,1,.231,1.987c-3.685.426-6.087,7.341-6.7,9.97A1,1,0,0,1,20.667,51Z"/><path class="a018e247-0fd0-4722-80bb-0c981689ef26" d="M50.306,28.134a1,1,0,0,1-.845-.463c-.866-1.363-6.387-6.346-17.428-6.013A.978.978,0,0,1,31,20.692a1,1,0,0,1,.966-1.032c11.818-.4,17.959,5.014,19.181,6.937a1,1,0,0,1-.842,1.537Z"/><path class="e81052b9-419f-4506-8c70-e2b514a9f0e0" d="M37.5,32.341a1,1,0,0,1-.065-2c6.464-.431,9.256-1.976,11.993-3.8a4.473,4.473,0,0,0,2.021-3.621,1.342,1.342,0,0,0,.005-.256.959.959,0,0,1-.006-.107A4.7,4.7,0,0,0,48.9,18.54C45.812,16.926,40.366,15,32,15a1,1,0,0,1,0-2c8.772,0,14.539,2.05,17.832,3.769a6.673,6.673,0,0,1,3.611,5.66c0,.009,0,.047,0,.079a2.838,2.838,0,0,1-.006.553,6.4,6.4,0,0,1-2.907,5.146c-2.978,1.985-6.01,3.668-12.968,4.132Z"/><path class="a059d934-42ab-4413-ab7e-f609166e4659" d="M42.286,38.646a1,1,0,0,1-.292-1.957,37.365,37.365,0,0,0,6.31-2.7l.571-.291a4.642,4.642,0,0,0,2.569-4.167V22.558a1.037,1.037,0,0,1,1-1.043.964.964,0,0,1,1,.958v7.054a6.632,6.632,0,0,1-3.667,5.952l-.564.288A39.1,39.1,0,0,1,42.578,38.6.99.99,0,0,1,42.286,38.646Z"/><path class="b672de80-37a9-4b41-8ec3-6fcb050bec66" d="M40.5,48.166a1,1,0,0,1-1-1.062c.016-.259.335-6.363-3.845-6.846a1,1,0,1,1,.231-1.987c4.2.485,5.465,4.7,5.615,7.674l5-1c-.81-4.011-7.282-8.644-9.877-10.18a1,1,0,0,1,1.018-1.722c.447.265,10.942,6.538,10.942,12.7a1,1,0,0,1-.8.98L40.7,48.146A1,1,0,0,1,40.5,48.166Zm7.082-2.416h0Z"/></svg>